<svg class="icon" viewBox="0 0 22.6 20" xmlns="http://www.w3.org/2000/svg"><path d="m22.6 2.2v15.6 0.1c-0.2 1.3-1 2-2 2-6.3 0.1-12.4 0.1-18.6 0.1-1.2 0-2-1.1-2-2.6v-14.8c0-0.2 0-0.5 0.1-0.7 0.2-1.1 1-1.9 2-1.9h14.2 4.2c0.9 0 1.5 0.5 1.8 1.5 0.2 0.2 0.2 0.5 0.3 0.7m-2.9 6.8c0-2.1-1.7-3.8-3.8-3.8-2.1-0.1-3.9 1.7-3.9 3.8s1.7 3.8 3.8 3.8c2.2 0 3.9-1.7 3.9-3.8m-11.6-2.2h1.7c0.4 0 0.7-0.3 0.7-0.7s-0.3-0.7-0.7-0.7h-3.4c-0.4 0.1-0.7 0.4-0.7 0.8s0.3 0.7 0.7 0.7c0.6-0.1 1.1-0.1 1.7-0.1m0 2.8h1.7c0.4 0 0.7-0.3 0.7-0.7s-0.3-0.7-0.7-0.7h-3.4c-0.4 0.1-0.7 0.4-0.7 0.8s0.3 0.7 0.7 0.7c0.6-0.1 1.1-0.1 1.7-0.1m0 1.5h-1.7c-0.4 0-0.7 0.3-0.7 0.7s0.3 0.7 0.7 0.7h3.4c0.4 0 0.7-0.3 0.7-0.7s-0.3-0.7-0.7-0.7h-1.7m-1.2 4.2h0.5c0.4 0 0.7-0.3 0.7-0.7s-0.3-0.7-0.7-0.7h-1c-0.4 0-0.7 0.3-0.7 0.7s0.3 0.6 0.7 0.7h0.5m6.3-1.3h-0.6c-0.4 0-0.6 0.3-0.6 0.7 0 0.3 0.3 0.7 0.6 0.7h1.1c0.4 0 0.6-0.3 0.6-0.7 0-0.3-0.3-0.6-0.6-0.7h-0.5m-9-2.2c0-0.4-0.3-0.7-0.7-0.7s-0.7 0.3-0.7 0.7 0.3 0.6 0.7 0.6c0.4 0.1 0.7-0.2 0.7-0.6m0-5.6c0-0.4-0.3-0.6-0.7-0.6s-0.7 0.3-0.6 0.7c0 0.4 0.3 0.7 0.7 0.7 0.3-0.2 0.6-0.5 0.6-0.8m-0.7 2.1c-0.3 0-0.6 0.3-0.6 0.7s0.3 0.7 0.6 0.7c0.4 0 0.7-0.3 0.7-0.7s-0.3-0.7-0.7-0.7" fill="currentColor"></path><path d="m18.3 9.7c-0.3 1.1-1.4 1.9-2.6 1.8s-2.2-1.1-2.3-2.3 0.7-2.3 1.8-2.6v0.2 2.1c0 0.5 0.3 0.7 0.7 0.7 0.8 0.1 1.6 0.1 2.4 0.1" fill="currentColor"></path><path d="m18.3 8.5h-1.7v-1.8c0.7 0.2 1.5 1 1.7 1.8" fill="currentColor"></path></svg>