<svg class="icon" viewBox="0 0 20.2 20" xmlns="http://www.w3.org/2000/svg"><defs><rect id="advanced-settings-clippath" width="20.2" height="20"></rect></defs><clipPath id="advanced-settings-clippath-a"><use xlink:href="#advanced-settings-clippath"></use></clipPath><path d="m0 5.3c0.1-0.3 0.3-0.5 0.6-0.5 0.2 0 0.5 0 0.6-0.1s0.2-0.4 0.2-0.6c0-0.1 0.1-0.2 0.1-0.3 0.1-0.2 0.1-0.3-0.1-0.5 0-0.1-0.1-0.2-0.2-0.3-0.2-0.3-0.2-0.5 0-0.8l0.9-0.9c0.2-0.2 0.5-0.2 0.8 0 0.2 0.1 0.3 0.3 0.5 0.4h0.2c0.3-0.1 0.7-0.3 1-0.4 0.1 0 0.1-0.1 0.1-0.1 0-0.2 0.1-0.4 0.1-0.5 0.1-0.5 0.3-0.7 0.6-0.7h1.2c0.4 0 0.6 0.2 0.6 0.5 0 0.2 0 0.5 0.1 0.6s0.4 0.2 0.6 0.3c0.1 0 0.2 0.1 0.3 0.2 0.2 0.1 0.3 0.1 0.5-0.1 0.1-0.1 0.3-0.2 0.4-0.3 0.2-0.1 0.4-0.1 0.6 0 0.4 0.3 0.7 0.7 1 1 0.2 0.2 0.2 0.4 0 0.7-0.1 0.2-0.3 0.3-0.4 0.5v0.2c0.1 0.3 0.2 0.6 0.4 0.9 0 0.1 0.1 0.1 0.1 0.1 0.2 0 0.4 0 0.5 0.1 0.5 0.1 0.7 0.3 0.7 0.7v1.2c0 0.4-0.2 0.6-0.6 0.6-0.2 0-0.5 0-0.6 0.1s-0.2 0.4-0.2 0.6c-0.1 0.2-0.1 0.3-0.2 0.4s0 0.2 0 0.2c0.1 0.1 0.2 0.3 0.4 0.5 0.2 0.3 0.2 0.6 0 0.8-0.3 0.3-0.5 0.6-0.8 0.8-0.3 0.3-0.5 0.3-0.8 0-0.2-0.1-0.4-0.4-0.6-0.4s-0.4 0.2-0.6 0.2h-0.1c-0.4 0-0.5 0.3-0.5 0.6-0.3 0.9-0.4 1-1.2 1h-0.9c-0.4 0-0.6-0.2-0.6-0.5 0-0.2 0-0.4-0.1-0.7 0-0.1-0.1-0.1-0.1-0.2-0.3-0.1-0.6-0.2-0.9-0.4h-0.2c-0.2 0.1-0.3 0.3-0.5 0.4-0.3 0.2-0.6 0.2-0.8 0-0.3-0.3-0.6-0.5-0.8-0.8s-0.2-0.5 0-0.8c0.1-0.2 0.3-0.3 0.4-0.5 0-0.1 0.1-0.2 0-0.2l-0.3-0.9c0-0.1-0.1-0.1-0.2-0.1-0.2 0-0.4-0.1-0.6-0.1-0.3 0-0.5-0.2-0.6-0.4v-1.5zm6 2.8c1.2 0 2.1-1 2.1-2.1 0-1.2-1-2.1-2.2-2.1s-2.1 1-2.1 2.1c0.1 1.1 1 2.1 2.2 2.1" clip-path="url(#advanced-settings-clippath-a)" fill="currentColor"></path><path d="m12.2 7.3c0.2 0.1 0.3 0.1 0.4 0.2 0.2 0.2 0.5 0.2 0.7 0 0.1-0.1 0.3-0.1 0.4-0.2s0.2-0.1 0.2-0.3v-0.3c0-0.3 0.2-0.5 0.5-0.5s0.5 0 0.8-0.1c0.4 0 0.6 0.1 0.7 0.5 0 0.4 0.2 0.5 0.6 0.6s0.7 0.2 1-0.2c0.2-0.2 0.4-0.2 0.7 0 0.2 0.2 0.4 0.4 0.6 0.5 0.2 0.2 0.3 0.5 0.1 0.8s-0.2 0.5 0 0.8 0.3 0.5 0.7 0.5c0.3 0 0.5 0.2 0.5 0.5s0.1 0.5 0.1 0.8c0 0.4-0.1 0.6-0.5 0.7-0.4 0-0.5 0.2-0.6 0.6s-0.1 0.6 0.2 0.9c0.2 0.2 0.2 0.5 0 0.7s-0.4 0.4-0.5 0.6c-0.2 0.2-0.5 0.3-0.7 0.1-0.3-0.3-0.6-0.3-1-0.1-0.3 0.2-0.5 0.4-0.5 0.7 0 0.4-0.2 0.6-0.6 0.6-0.2 0-0.5 0-0.7 0.1-0.4 0-0.6-0.1-0.7-0.5s-0.2-0.6-0.6-0.7-0.6-0.1-0.8 0.2c-0.3 0.3-0.6 0.3-0.9 0-0.2-0.2-0.4-0.3-0.5-0.5-0.3-0.2-0.3-0.5-0.1-0.8 0.3-0.3 0.3-0.6 0.1-0.9s-0.3-0.4-0.6-0.4c-0.5 0-0.7-0.2-0.7-0.7v-0.6c0-0.4 0.1-0.6 0.5-0.6s0.5-0.2 0.6-0.6 0.1-0.6-0.2-0.9c-0.3-0.2-0.2-0.5 0-0.8 0.2-0.2 0.3-0.4 0.5-0.6 0 0.1 0.2 0 0.3-0.1m3.1 2c-1 0-1.7 0.7-1.8 1.8 0 0.9 0.8 1.7 1.7 1.7 1 0 1.8-0.7 1.8-1.7 0.1-1-0.7-1.8-1.7-1.8" clip-path="url(#advanced-settings-clippath-a)" fill="currentColor"></path><path d="m4.7 18.2c0.1-0.2 0.2-0.3 0.3-0.5 0.1-0.1 0.1-0.2 0.1-0.4-0.1-0.3-0.3-0.6-0.7-0.6-0.2 0-0.4-0.2-0.4-0.4v-0.7c0-0.3 0.2-0.4 0.5-0.5h0.1c0.2 0 0.3-0.1 0.3-0.3 0.2-0.3 0.2-0.6 0-0.9-0.1-0.2-0.1-0.4 0-0.5s0.3-0.3 0.5-0.4c0.2-0.2 0.5-0.2 0.7 0s0.3 0.2 0.5 0c0.1 0 0.3-0.1 0.4-0.1s0.2-0.1 0.2-0.2c0-0.5 0.2-0.7 0.7-0.7h0.3c0.4 0 0.6 0.2 0.6 0.6 0 0.2 0.1 0.3 0.2 0.3 0.2 0 0.3 0.1 0.4 0.2s0.2 0 0.2 0c0.4-0.3 0.6-0.3 1 0.1l0.1 0.1c0.4 0.4 0.4 0.6 0.1 1.1v0.2s0 0.1 0.1 0.1c0.1 0.3 0.2 0.6 0.6 0.6 0.2 0 0.3 0.2 0.3 0.4v0.6c0 0.4-0.2 0.6-0.6 0.6-0.2 0-0.3 0.1-0.3 0.3-0.2 0.3-0.3 0.6 0 0.9 0.1 0.2 0.1 0.4-0.1 0.6-0.1 0.2-0.3 0.3-0.5 0.5s-0.5 0.2-0.7 0-0.3-0.2-0.5-0.1c-0.3 0.1-0.6 0.3-0.6 0.7 0 0.2-0.2 0.4-0.4 0.4h-0.7c-0.3 0-0.5-0.2-0.5-0.6 0-0.3-0.1-0.4-0.3-0.5-0.2-0.3-0.4-0.3-0.6-0.1s-0.4 0.1-0.6 0-0.3-0.3-0.4-0.5c-0.2 0-0.2-0.2-0.3-0.3m3.3-0.8c0.8 0 1.4-0.6 1.4-1.4s-0.6-1.4-1.4-1.4-1.4 0.6-1.4 1.4c-0.1 0.7 0.6 1.4 1.4 1.4" clip-path="url(#advanced-settings-clippath-a)" fill="currentColor"></path></svg>