<svg class="icon" viewBox="0 0 20 20" xmlns="http://www.w3.org/2000/svg"><g fill="currentColor"><path d="m12.1 0h6.7c0.3 0.1 0.7 0.2 0.9 0.5 0.1 0.3 0.2 0.5 0.3 0.7v9.2c-0.2 0.8-0.7 1.2-1.6 1.2h-5.9c-0.2 0-0.3 0-0.5-0.1-0.7-0.2-1.1-0.7-1.1-1.5v-5.5-3.1c0-0.7 0.4-1.2 0.9-1.4 0.1 0.1 0.2 0 0.3 0z"></path><path d="m0 18.8v-9.2c0.3-0.8 0.7-1.2 1.6-1.2h6c0.9 0 1.6 0.6 1.6 1.6v2.3 6.2c0 0.6-0.3 1.1-0.8 1.4-0.2 0-0.4 0.1-0.5 0.1h-6.7c-0.5-0.1-0.8-0.3-1.1-0.8 0-0.1-0.1-0.3-0.1-0.4z"></path><path d="m7.9 0c0.2 0.1 0.5 0.2 0.7 0.4 0.4 0.2 0.6 0.6 0.6 1.1v3.7c0 0.9-0.6 1.5-1.5 1.5h-6.2c-0.8 0-1.3-0.5-1.5-1.2v-0.1-4.2c0-0.1 0-0.1 0.1-0.2 0.1-0.4 0.4-0.7 0.8-0.9 0 0 0.2-0.1 0.3-0.1h6.7z"></path><path d="m12.1 20c-0.1-0.1-0.3-0.1-0.4-0.2-0.5-0.3-0.8-0.7-0.8-1.3v-3.8c0-0.8 0.6-1.4 1.5-1.4h4.5 1.6c0.8 0 1.3 0.4 1.5 1.2v0.1 4.2c-0.1 0.2-0.2 0.5-0.3 0.7-0.2 0.3-0.6 0.5-0.9 0.6-2.3-0.1-4.5-0.1-6.7-0.1z"></path></g></svg>