<svg class="icon" viewBox="0 0 20.4 20" xmlns="http://www.w3.org/2000/svg"><g fill="currentColor"><path d="m3.7 17.6 8.2-8.2c0.1-0.1 0.2-0.1 0.4-0.2h7c0.6 0 0.9 0.3 0.9 0.9 0 4.7-3.4 8.8-8.1 9.7-3 0.6-5.7-0.1-8.2-2 0-0.1-0.1-0.1-0.2-0.2z"></path><path d="m2.6 16.5c-0.8-0.9-1.4-2-1.8-3.1-2-5.6 1.2-11.5 6.9-13 0.8-0.3 1.6-0.4 2.5-0.4 0.5 0 0.8 0.3 0.8 0.8v7.1c0 0.1 0 0.2-0.1 0.3-2.7 2.8-5.5 5.5-8.3 8.3 0.1-0.1 0.1 0 0 0zm3.8-11.9c-0.1-0.5-0.4-0.8-0.9-0.8-0.4 0-0.7 0.3-0.7 0.8 0 0.1-0.1 0.2-0.1 0.2-0.8 0.5-1.2 1.3-1 2.2 0.2 0.8 0.9 1.4 1.8 1.5 0.3 0 0.5 0.1 0.5 0.3s-0.2 0.4-0.5 0.4h-1c-0.5 0-0.8 0.4-0.8 0.8s0.3 0.8 0.8 0.8h0.3v0.1c0.1 0.5 0.4 0.7 0.8 0.7s0.7-0.3 0.7-0.8c0-0.1 0.1-0.2 0.1-0.2 0.8-0.5 1.1-1.3 0.9-2.1 0-0.9-0.7-1.5-1.6-1.6-0.3 0-0.4-0.2-0.4-0.4s0.2-0.4 0.5-0.4h1.1c0.5 0 0.8-0.3 0.8-0.8 0-0.4-0.3-0.8-0.8-0.8-0.3 0.1-0.4 0.1-0.5 0.1z"></path><path d="m15.6 7.7h-3c-0.5 0-0.9-0.3-0.9-0.8s0.3-0.8 0.9-0.8h6c0.5 0 0.9 0.3 0.9 0.8s-0.3 0.8-0.9 0.8h-3z"></path><path d="m14.8 5.4h-2.2c-0.5 0-0.9-0.3-0.9-0.8s0.3-0.8 0.9-0.8h4.4c0.5 0 0.9 0.3 0.8 0.8 0 0.4-0.4 0.8-0.8 0.8h-2.2z"></path><path d="m14.1 1.5h1.5c0.5 0 0.8 0.3 0.8 0.8 0 0.4-0.3 0.8-0.8 0.8h-3c-0.5 0-0.8-0.3-0.8-0.8 0-0.4 0.3-0.8 0.8-0.8h1.5z"></path></g></svg>