<svg class="icon" viewBox="0 0 20.4 20" xmlns="http://www.w3.org/2000/svg"><defs><rect id="diposit-withdraw-clippath" width="20.4" height="20"></rect></defs><clipPath id="diposit-withdraw-clippath-a"><use xlink:href="#diposit-withdraw-clippath"></use></clipPath><path d="m20.4 14.1v4.4 0.1c-0.1 0.8-0.8 1.5-1.8 1.5-5.6-0.1-11.2-0.1-16.8-0.1-0.3 0-0.6-0.1-0.8-0.2-0.7-0.3-1-0.9-1-1.7v-8.1-4c0-0.6 0.2-1.1 0.7-1.5 0.4-0.3 0.8-0.4 1.2-0.4h7.6 9c0.5 0 1 0.1 1.4 0.5 0.3 0.3 0.5 0.7 0.5 1.1v3.2h-0.1-7c-1.1 0-1.7 0.8-1.7 1.8v1.6c0 0.3 0.1 0.6 0.2 0.8 0.3 0.7 0.9 1 1.7 1h6.9" clip-path="url(#diposit-withdraw-clippath-a)" fill="currentColor"></path><path d="m20.4 12.9h-0.3-6.6c-0.5 0-0.7-0.2-0.7-0.7v-1.5c0-0.4 0.2-0.6 0.6-0.6h7v2.8zm-6.1-2.2c-0.4 0-0.8 0.3-0.8 0.8 0 0.4 0.4 0.8 0.8 0.8s0.8-0.4 0.8-0.8c0-0.5-0.4-0.8-0.8-0.8" clip-path="url(#diposit-withdraw-clippath-a)" fill="currentColor"></path><path d="m8.9 2.9c2.7-1 5.4-1.9 8.1-2.9 0.3 1 0.7 1.9 1 2.9h-9.1" clip-path="url(#diposit-withdraw-clippath-a)" fill="currentColor"></path></svg>