<svg enable-background="new 0 0 48 17.5" version="1.1" viewBox="0 0 48 17.5" xml:space="preserve" xmlns="http://www.w3.org/2000/svg"><path fill="currentColor" d="m1.2 17.4h-0.3c-0.5-0.1-0.8-0.7-0.7-1.2 2-7.2 5-12.2 8.8-14.7 1.5-1 3-1.5 4.5-1.4 4.9 0.3 7.2 4.9 9 8.5 0.3 0.4 0.5 0.8 0.7 1.2 1 1.8 2.7 3.9 4.5 4.3 0.9 0.2 1.7-0.1 2.6-0.8 1.8-1.4 3-3.7 4.1-5.9 0.5-1 1-1.9 1.5-2.9 1-1.5 2.8-3.5 4.9-3.8 1.1-0.1 2.2 0.3 3.1 1 1.3 1.1 1.9 2.6 2.4 4.1 0.4 1 0.7 1.9 1.2 2.6 0.3 0.4 0.2 1.1-0.2 1.4s-1.1 0.2-1.4-0.2c-0.7-0.9-1.1-2-1.5-3-0.5-1.3-1-2.5-1.9-3.3-0.5-0.4-1-0.6-1.5-0.5-1.3 0.2-2.7 1.6-3.5 2.8-0.5 0.8-1 1.8-1.4 2.7-1.2 2.4-2.4 4.9-4.6 6.5-1.3 1.1-2.8 1.5-4.2 1.2-3.1-0.6-5.1-3.9-5.9-5.3-0.2-0.4-0.4-0.8-0.6-1.3-1.7-3.4-3.5-7.2-7.3-7.4-1.1-0.1-2.1 0.3-3.3 1-3.5 2.4-6.2 7-8 13.7-0.2 0.4-0.6 0.7-1 0.7z"></path></svg>